PathFileType	4	(X/Y/Z)	2014001\dynamic\2014001_C3_02.trc
DataRate	CameraRate	NumFrames	NumMarkers	Units	OrigDataRate	OrigDataStartFrame	OrigNumFrames
100.000000	100.000000	4	52	mm	100.000000	23	187
Frame#	Time	L_IAS			L_IPS			R_IPS			R_IAS			L_FTC			L_FLE			L_FME			L_FAX			L_TTC			L_FAL			L_TAM			L_FCC			L_FM1			L_FM2			L_FM5			R_FTC			R_FLE			R_FME			R_FAX			R_TTC			R_FAL			R_TAM			R_FCC			R_FM1			R_FM2			R_FM5			CV7			TV10			SXS			SJN			L_SIA			L_SRS			L_SAA			L_SAE			L_HLE			L_HME			L_UOA			L_RSP			L_UHE			L_HM2			L_HM5			R_SIA			R_SRS			R_SAA			R_SAE			R_HLE			R_HME			R_UOA			R_RSP			R_UHE			R_HM2			R_HM5			
		X1	Y1	Z1	X2	Y2	Z2	X3	Y3	Z3	X4	Y4	Z4	X5	Y5	Z5	X6	Y6	Z6	X7	Y7	Z7	X8	Y8	Z8	X9	Y9	Z9	X10	Y10	Z10	X11	Y11	Z11	X12	Y12	Z12	X13	Y13	Z13	X14	Y14	Z14	X15	Y15	Z15	X16	Y16	Z16	X17	Y17	Z17	X18	Y18	Z18	X19	Y19	Z19	X20	Y20	Z20	X21	Y21	Z21	X22	Y22	Z22	X23	Y23	Z23	X24	Y24	Z24	X25	Y25	Z25	X26	Y26	Z26	X27	Y27	Z27	X28	Y28	Z28	X29	Y29	Z29	X30	Y30	Z30	X31	Y31	Z31	X32	Y32	Z32	X33	Y33	Z33	X34	Y34	Z34	X35	Y35	Z35	X36	Y36	Z36	X37	Y37	Z37	X38	Y38	Z38	X39	Y39	Z39	X40	Y40	Z40	X41	Y41	Z41	X42	Y42	Z42	X43	Y43	Z43	X44	Y44	Z44	X45	Y45	Z45	X46	Y46	Z46	X47	Y47	Z47	X48	Y48	Z48	X49	Y49	Z49	X50	Y50	Z50	X51	Y51	Z51	X52	Y52	Z52	

24	0.23	103.128158569336	864.4619750976567	885.8627929687505	187.4201660156251	907.3617553710942	1057.510009765625	278.0636291503907	906.5134887695317	1056.36865234375	340.0809631347657	881.328979492188	870.955932617188	51.67981338500979	778.9799194335942	973.4767456054692	56.62807464599612	435.0314941406252	1009.590576171875	169.5576477050782	400.7769165039065	971.661499023438	53.44221115112308	397.6976318359377	1059.043823242188	90.98760986328128	334.4036865234376	1018.504516601563	103.3387756347657	189.2759399414063	1301.894653320313	185.1139678955079	173.6928253173829	1266.151245117188	159.1935424804688	198.176239013672	1348.3857421875	176.385482788086	54.44132614135745	1252.842895507813	117.1299285888672	52.9241638183594	1252.057250976563	80.86077117919925	74.63078308105472	1295.239624023438	406.0630798339846	783.6491088867192	950.2844848632817	355.2429504394532	442.8277587890627	849.4777832031255	237.0762634277345	437.6069641113284	852.6119995117192	359.5847167968751	376.1853027343751	859.3248901367192	301.1220092773439	376.3334960937501	802.2238769531255	310.9432067871095	66.12677764892581	887.5927734375005	226.6338195800782	81.69285583496097	854.7015991210942	256.712615966797	25.69194984436037	932.5162963867192	234.7402801513673	23.04640579223634	745.3599243164065	298.0267639160157	36.79588699340822	738.5904541015627	346.0940551757814	24.1952590942383	797.5537109375005	249.5284423828126	1371.703369140625	1038.547241210938	230.3967437744142	1135.9365234375	1088.537231445313	230.3065643310548	1155.148193359375	854.0628051757817	242.4810791015626	1314.931762695313	907.3468627929692	139.3496093750001	1182.068969726563	1093.978149414063	156.0354156494141	1314.307250976563	1078.188598632813	47.15967178344728	1322.365234375	1005.667358398438	64.24668121337893	1334.590209960938	965.1228027343755	-22.2518539428711	1051.696166992188	981.5871582031255	51.41243743896487	1015.844665527344	1006.364807128907	2.412201166152955	1016.777038574219	1012.204833984375	8.93879318237305	819.7687377929692	885.847045898438	-60.66357803344729	821.5485839843755	927.5376586914067	1.994060754776002	735.768737792969	859.6572265625005	-67.57979583740237	744.2556762695315	933.7498168945317	343.103973388672	1171.304321289063	1098.848388671875	329.3128967285157	1296.764282226563	1077.617553710938	432.7382812500002	1290.742309570313	1005.364685058594	424.1284790039065	1298.315185546875	954.9492187500005	470.4780273437502	993.4174194335942	1004.77783203125	390.1643066406252	982.974487304688	1022.137268066407	435.3285217285159	975.983276367188	1033.859497070313	449.7356567382815	779.4299316406255	923.6411132812505	502.9582214355471	780.3220825195317	986.546752929688	462.9319152832034	686.6348876953127	907.6743774414067	499.4119567871096	702.7708129882815	1001.258056640625	
25	0.24	104.0668182373047	866.2116699218755	876.7827758789067	189.3116607666016	908.5619506835942	1047.854248046875	279.8542785644532	907.8295288085942	1046.258422851563	341.145233154297	882.1431274414067	860.6116333007817	53.36449050903323	779.8738403320317	963.0055541992192	56.0215873718262	435.078552246094	988.2048339843755	169.4246673583985	401.2535095214846	950.2687377929692	52.48855209350589	398.0056152343752	1037.112182617188	90.71800231933597	334.2991943359376	997.2213745117192	102.8925704956055	194.5702667236329	1283.34765625	184.8441162109376	178.0288391113282	1248.06689453125	158.8300170898438	203.819793701172	1330.096435546875	173.8384094238282	58.28506088256839	1235.802490234375	114.8552856445313	57.13654327392581	1235.56103515625	78.98108673095706	80.81416320800784	1278.419799804688	407.2129821777346	784.5985717773442	940.2492675781255	355.767547607422	442.4035949707034	845.0488891601567	237.5971527099611	437.3275451660159	848.5825805664067	359.9476318359376	375.7185363769532	855.9133911132817	301.4805603027345	375.3872070312501	798.816528320313	310.750701904297	66.0419616699219	887.6638183593755	226.3652191162111	81.51004028320315	854.6970214843755	256.6386108398439	25.63471794128419	932.695922851563	234.6187896728517	22.94492912292481	745.539733886719	297.8359985351564	36.90113830566408	738.6652832031252	345.9279785156251	24.21347618103029	797.7080078125005	251.0900726318361	1373.160034179688	1028.50341796875	232.971405029297	1137.3955078125	1078.699340820313	230.8799896240236	1156.537231445313	844.1127929687505	243.0425109863282	1316.327026367188	897.3041992187505	142.0801391601563	1183.126342773438	1084.887573242188	158.0868377685547	1315.3955078125	1068.865966796875	48.53248596191409	1323.126342773438	997.3890991210942	65.16349029541018	1335.408569335938	956.6876831054692	-20.59362792968751	1052.505737304688	975.6570434570317	53.45639419555667	1017.090576171875	1000.066162109375	4.556960582733156	1018.293151855469	1006.395385742188	8.545989036560062	818.8616333007817	884.1250000000005	-60.54756546020511	821.9062500000005	926.553588867188	1.362626910209656	733.8364257812502	860.622924804688	-67.5441818237305	744.699157714844	935.1693725585942	345.9921875000001	1172.82470703125	1087.630493164063	331.4148254394532	1298.187866210938	1066.766479492188	434.2408447265627	1292.6064453125	993.6337890625005	425.0317687988284	1300.265014648438	943.2734985351567	473.0762634277346	995.1663208007817	989.7927856445317	393.235534667969	984.169799804688	1008.439758300782	438.4944458007815	977.2461547851567	1019.362670898438	451.6422424316409	782.1150512695317	906.5068359375005	505.9106445312502	782.3901977539067	968.717651367188	464.9455871582034	689.527526855469	889.3886108398442	502.7942199707034	704.6277465820315	982.5535278320317	
26	0.25	104.9183654785157	868.0300292968755	867.8046875000005	191.1610870361329	909.8286132812505	1038.338989257813	281.5999145507814	909.1572265625005	1036.281127929688	342.1267089843751	882.970581054688	850.418090820313	54.92384338378909	781.0259399414067	952.6813354492192	55.54058074951175	435.5572204589846	966.8759765625005	169.4374237060547	402.260681152344	929.0081176757817	51.77514648437503	398.6563110351565	1015.255126953125	90.56075286865237	334.6763000488282	975.7833862304692	102.6085281372071	199.1270294189454	1263.912963867188	184.6578063964844	181.7567138671876	1228.932861328125	158.6141357421876	208.2371215820314	1310.978149414063	171.0655517578126	61.89146423339847	1216.602661132813	112.3181152343751	61.34102249145511	1216.829467773438	76.94766235351565	86.53662872314456	1259.691528320313	408.2925415039065	785.511596679688	930.4125976562505	356.3868408203126	442.0092773437502	841.047973632813	238.1909484863282	437.1128540039065	844.672729492188	360.4043579101564	375.2735290527345	852.906127929688	301.9985351562501	374.4762573242189	795.795043945313	310.6362609863282	65.94412231445315	887.767944335938	226.2026977539064	81.36392974853518	854.7111206054692	256.6326599121095	25.64535713195802	932.9097290039067	234.5770416259767	22.9225025177002	745.7009887695315	297.7279357910157	36.93874740600587	738.7564086914065	345.8027954101564	24.11740684509279	797.859008789063	252.5606384277345	1374.634887695313	1018.497741699219	235.4414062500001	1138.895629882813	1069.00341796875	231.3289184570314	1157.874877929688	834.2636718750005	243.4813385009767	1317.664916992188	887.3403320312505	144.7701416015626	1184.234375	1075.957275390625	160.0772552490235	1316.522705078125	1059.650634765625	49.84068298339847	1323.879272460938	989.254760742188	65.98525238037112	1336.200073242188	948.402465820313	-19.05010414123536	1053.342407226563	969.838745117188	55.34940719604495	1018.330200195313	993.9360961914067	6.5412712097168	1019.800537109375	1000.687316894532	8.221792221069339	818.2199707031255	882.2640991210942	-60.37432861328128	822.405639648438	925.3786010742192	0.8113095164299016	732.3276367187502	861.2504882812505	-67.42018890380862	745.3319091796877	936.2116699218755	348.8056945800782	1174.41748046875	1076.51904296875	333.4376220703126	1299.662963867188	1055.958251953125	435.6440734863284	1294.485473632813	981.8723754882817	425.7845764160159	1302.181518554688	931.6240844726567	475.7030334472659	996.9650878906255	974.826293945313	396.4044189453127	985.3665161132817	994.8434448242192	441.7431335449221	978.5099487304692	1004.851318359375	453.5310363769534	784.952270507813	889.1342773437505	508.8897094726565	784.5587768554692	950.6193237304692	467.0095214843752	692.6463623046877	870.7189941406255	506.2385864257815	706.5745239257815	963.4545288085942	
27	0.26	105.735939025879	869.9179077148442	858.8598632812505	192.9448547363282	911.1577148437505	1028.933349609375	283.2859802246095	910.4815063476567	1026.420288085938	343.074432373047	883.818969726563	840.376831054688	56.36035919189456	782.432250976563	942.4404296875005	55.18658447265628	436.4825134277346	945.691040039063	169.5707244873047	403.778259277344	907.9491577148442	51.30231475830081	399.6705322265627	993.577514648438	90.48294830322268	335.5574645996095	954.270629882813	102.450180053711	202.8242797851564	1243.650634765625	184.513412475586	184.7575683593751	1208.789184570313	158.5102691650391	211.3325347900392	1291.082885742188	168.1693420410157	65.10157012939456	1195.405151367188	109.6179351806641	65.35317230224612	1196.000732421875	74.82933044433597	91.5976257324219	1239.145751953125	409.3111267089846	786.3784179687505	920.7825317382817	357.0920410156251	441.6572875976565	837.4275512695317	238.8529052734376	436.9673156738284	840.8528442382817	360.9473266601564	374.8698730468751	850.2522583007817	302.6592407226564	373.6141662597657	793.1121215820317	310.5949707031251	65.85158538818362	887.878784179688	226.1431427001954	81.26299285888675	854.7273559570317	256.6986389160157	25.74450302124025	933.1365356445317	234.5930175781251	22.95239448547364	745.8332519531252	297.6900024414064	36.90903472900392	738.8394775390627	345.7323303222657	23.93639564514161	797.9982299804692	253.9334716796876	1376.118774414063	1008.537170410157	237.790740966797	1140.418212890625	1059.424560546875	231.6635589599611	1159.186401367188	824.483520507813	243.8034057617189	1318.961303710938	877.4577026367192	147.3945770263672	1185.38427734375	1067.156860351563	162.0001220703126	1317.678833007813	1050.539672851563	51.09222030639651	1324.643920898438	981.260375976563	66.71160888671878	1336.984741210938	940.263549804688	-17.60482597351075	1054.223754882813	964.1422729492192	57.12629699707034	1019.582763671875	987.9617309570317	8.400132179260257	1021.310424804688	995.0888671875005	7.981885910034183	817.8293457031255	880.2472534179692	-60.13257598876956	823.0351562500005	924.011352539063	0.3374840021133424	731.2197875976565	861.498413085938	-67.2120056152344	746.1368408203127	936.8512573242192	351.5274963378907	1176.074462890625	1065.5107421875	335.3730468750001	1301.1796875	1045.201904296875	436.9425964355471	1296.378540039063	970.0903320312505	426.3867797851565	1304.068359375	920.0131225585942	478.3444519042971	998.8208618164067	959.9005737304692	399.6455993652346	986.5774536132817	981.3515014648442	445.0518798828127	979.7881469726567	990.3340454101567	455.3929138183596	787.9450683593755	871.5674438476567	511.869323730469	786.8439941406255	932.285522460938	469.1014404296877	696.0003051757815	851.709594726563	509.7164306640627	708.6353759765627	943.9990234375005	
